<?xml version="1.0" standalone="no"?>
<svg viewBox="0 0 200 200" xmlns="http://www.w3.org/2000/svg">
  <path fill="#383838" d="M38.9,-62.4C47.1,-55.4,48,-38.9,55,-24.8C61.9,-10.7,74.8,1,75.5,12.3C76.2,23.7,64.6,34.8,53,43.1C41.4,51.4,29.8,56.8,18.3,58.3C6.8,59.9,-4.7,57.5,-18.9,56.8C-33,56,-49.8,56.9,-56.6,49C-63.3,41.2,-60.1,24.7,-54.7,12.5C-49.3,0.2,-41.7,-7.7,-39.6,-20.4C-37.4,-33.1,-40.5,-50.5,-34.8,-58.6C-29.1,-66.8,-14.6,-65.7,0.4,-66.3C15.4,-67,30.8,-69.4,38.9,-62.4Z" transform="translate(100 100)" />
</svg>
